<?xml version="1.0" encoding="UTF-8"?>
<svg id="Layer_1" xmlns="http://www.w3.org/2000/svg" version="1.1" xmlns:serif="http://www.serif.com/" viewBox="0 0 1080 1080">
  <!-- Generator: Adobe Illustrator 29.8.7, SVG Export Plug-In . SVG Version: 2.1.1 Build 1)  -->
  <defs>
    <style>
      .st0 {
        fill: #543d17;
        fill-rule: evenodd;
      }

      .st1 {
        fill: #f5f2e8;
      }
    </style>
  </defs>
  <path class="st0" d="M294.1,523.5s104.7-203.2,217.3-107.7c224.1,189.9,254.1,34.1,291.2,7.4,0,124.6-73,627.6-73,627.6l-364.9,14.6-70.7-541.9Z"/>
  <path class="st1" d="M306.5,0C300.5,0,295.2,3.6,292.9,9.2l-25.5,63.8h-12c-28,0-51.1,23-51.1,51.1s12.5,38.4,30.2,46.5l47.2,418.1,16.5,146.7h0s37.5,331.8,37.5,331.8c.8,7.3,7.1,12.9,14.5,12.9h379.5c7.4,0,13.7-5.6,14.5-12.9l37.5-331.7h0s16.5-146.7,16.5-146.7l47.2-418.1c17.7-8.1,30.2-25.9,30.2-46.5s-23-51.1-51.1-51.1h-12l-25.5-63.8C784.8,3.6,779.5,0,773.5,0h-467ZM316.4,29.2h447.3l17.5,43.8h-482.3l17.5-43.8ZM255.4,102.2h569.2c12.3,0,21.9,9.6,21.9,21.9s-9.6,21.9-21.9,21.9H255.4c-12.3,0-21.9-9.6-21.9-21.9s9.6-21.9,21.9-21.9ZM264.4,175.1h551.1l-46.3,410.2-3.2,28.3c-2.4-.2-19.6,174.5-19.6,174.5h-412.8s-17.3-174.7-19.6-174.5l-3.2-28.3-28.2-249.7h337.8c4,0,7.3-3.3,7.3-7.3s-3.3-7.3-7.3-7.3h-339.5l-16.5-145.9ZM664.1,321.1h-.1c-4,0-7.3,3.3-7.3,7.3s3.3,7.3,7.3,7.3h44c4,0,7.3-3.3,7.3-7.3s-3.3-7.3-7.3-7.3h-43.9ZM751.6,321.1h-.1c-4,0-7.3,3.3-7.3,7.3s3.3,7.3,7.3,7.3h14.8c4,0,7.3-3.3,7.3-7.3s-3.3-7.3-7.3-7.3h-14.7ZM335.3,802.7h409.5l-28.1,248.1h-353.4l-28.1-248.1Z"/>
  <path class="st0" d="M305.7,540l471.6-24.5-56.3,489.4-361,12.4-54.4-477.3Z"/>
</svg>