<?xml version="1.0" encoding="UTF-8"?>
<svg id="Layer_2" data-name="Layer 2" xmlns="http://www.w3.org/2000/svg" xmlns:xlink="http://www.w3.org/1999/xlink" viewBox="0 0 124.43 124.43">
  <defs>
    <style>
      .cls-1 {
        fill: #3995c5;
      }

      .cls-2 {
        fill: #2a213c;
      }

      .cls-3 {
        fill: #fff;
      }

      .cls-4 {
        fill: none;
      }

      .cls-5 {
        fill: #845b77;
      }

      .cls-6 {
        fill: #f29e9d;
      }

      .cls-7 {
        clip-path: url(#clippath);
      }
    </style>
    <clipPath id="clippath">
      <circle class="cls-4" cx="62.22" cy="62.22" r="62.22"/>
    </clipPath>
  </defs>
  <g id="Layer_1-2" data-name="Layer 1">
    <circle class="cls-1" cx="62.22" cy="62.22" r="62.22"/>
    <g class="cls-7">
      <g>
        <path class="cls-2" d="M12.64,124.46h100.01c.81,0,1.39-.56,1.16-1.12l-16.18-39.28c-.15-.37-.62-.62-1.16-.62H28.82c-.53,0-1,.25-1.16.62l-16.18,39.28c-.23.56.35,1.12,1.16,1.12Z"/>
        <path class="cls-2" d="M11.78,107.04h100.01c.81,0,1.39-.56,1.16-1.12l-16.18-39.28c-.15-.37-.62-.62-1.16-.62H27.96c-.53,0-1,.25-1.16.62l-16.18,39.28c-.23.56.35,1.12,1.16,1.12Z"/>
        <path class="cls-2" d="M16.95,81.11h90.31c.73,0,1.25-.56,1.04-1.12l-14.61-39.28c-.14-.37-.56-.62-1.04-.62H31.56c-.48,0-.91.25-1.04.62l-14.61,39.28c-.21.56.32,1.12,1.04,1.12Z"/>
        <ellipse class="cls-3" cx="42.79" cy="68.83" rx="6.38" ry="6.4"/>
        <path class="cls-6" d="M56.92,102.7h12.11c5.96,0,10.24-5.75,8.52-11.46l-5.72-23.77c-1.13-3.76-4.93-2.73-8.86-2.73h0c-3.93,0-8.23-.53-9.36,3.23l-5.22,23.27c-1.72,5.71,2.56,11.46,8.52,11.46Z"/>
        <path class="cls-2" d="M71.75,86.07v2.99c0,.05-.05.1-.12.14h0s-8.77,6.23-8.77,6.23l-8.84-6.27.02-.46s-.04.4-.04.37v-2.99c0-.12.24-.22.53-.22h16.71c.29,0,.53.1.53.22Z"/>
        <g>
          <line class="cls-5" x1="62.68" y1="92.69" x2="62.85" y2="107.08"/>
          <rect class="cls-2" x="60.11" y="92.69" width="5.32" height="14.39" transform="translate(-1.16 .74) rotate(-.67)"/>
        </g>
        <path class="cls-2" d="M108.78,52.87l-8.37,8.38-18.78-18.28,8.61-8.62c2.56-2.56,5.92-3.84,9.27-3.84s6.7,1.27,9.26,3.83c5.12,5.11,5.13,13.41.02,18.53Z"/>
        <path class="cls-2" d="M16.59,52.67l8.37,8.38,18.78-18.28-8.61-8.62c-2.56-2.56-5.92-3.84-9.27-3.84s-6.7,1.27-9.26,3.83c-5.12,5.11-5.13,13.41-.02,18.53Z"/>
        <ellipse class="cls-2" cx="79.89" cy="69.05" rx="2.97" ry="3.5"/>
        <ellipse class="cls-3" cx="81.55" cy="68.83" rx="6.38" ry="6.4"/>
        <ellipse class="cls-2" cx="42.79" cy="68.83" rx="4.18" ry="4.2"/>
        <ellipse class="cls-2" cx="81.55" cy="68.83" rx="4.18" ry="4.2"/>
        <rect class="cls-6" x="34.93" y="53.74" width="15.73" height="5.29" rx="1.79" ry="1.79"/>
        <rect class="cls-6" x="73.76" y="58.61" width="15.73" height="5.29" rx="1.79" ry="1.79"/>
      </g>
    </g>
  </g>
</svg>