<?xml version="1.0" encoding="UTF-8"?>
<svg id="Layer_2" data-name="Layer 2" xmlns="http://www.w3.org/2000/svg" viewBox="0 0 400.83 85.1">
  <defs>
    <style>
      .cls-1 {
        fill: #2a213c;
      }
    </style>
  </defs>
  <g id="Layer_1-2" data-name="Layer 1">
    <path class="cls-1" d="M.23,56.06c0-.25.25-.74.25-.98.12-.25.37-.61.37-.61l.61-.74c.25-.12.74-.49.86-.49.74-.37,1.35-.37,2.09-.37.12,0,.49.12.61.37.25.12.74.61.86.74.25.25.37.61.37.74.12.12.37,1.1.37,1.35v1.6c-.12.25-.37,1.84-.37,2.21v6.01c.12.12.61,2.95.98,3.8l1.1,2.94c.12.49,1.23,2.58,1.6,3.19l.49.49c.12.12.61.49.61.49h1.72c.25,0,2.09-.86,2.45-.98.12-.25.49-.61.61-.74.12-.12.61-.86.61-.86,0-.12.25-.74.25-.98l1.35-2.33c0-.37.37-1.35.37-1.47,0-.61.37-3.56.37-4.29,0-.25.25-5.89.25-8.34v-.25c0-3.68-.25-13.13-.25-13.25,0-.37-.37-4.05-.37-4.54v-.86c0-1.1.37-9.69.37-10.55-.12-2.33-.25-13.49-.25-16.07v-5.27c-.37-.12-1.23-.37-1.35-.37h-4.17c-.37,0-2.82.37-3.19.37h-.25c-.12,0-1.59.25-1.72.25-.37.12-1.96.25-2.21.25h-.86c-.49,0-1.59-.12-1.72-.25-.12,0-.86-.61-.98-.61h-.25c-.12-.12-.61-.49-.61-.61-.12,0-.37-.49-.37-.61v-1.96l1.23-1.59c.12,0,.98-.25,1.23-.25.98-.12,5.52-.25,6.5-.25.12,0,3.93-.12,5.28-.12.74,0,4.54.12,5.15.12.12,0,.61.12.74.25,0,0,1.1.98,1.59,1.23,0,0,.12.37.25.37s1.23.37,1.23.61c.37.25,1.23.98,1.35,1.35.12,0,.25.37.25.49.12.37.25,1.23.37,1.35v1.59c-.12.37-.25,2.7-.37,3.43,0,.25-.25,2.7-.25,2.94,0,.74-.37,3.68-.37,4.17v1.47c0,.49-.25,3.31-.25,3.56v7.24c0,.37.25,2.08.25,2.33,0,.12.37,4.91.37,6.75.25,4.05.61,14.48.61,14.97v10.67l-.37,1.96c0,.49-.25,3.43-.25,3.8,0,.25-.37,1.23-.37,1.35-.12.25-.74,2.21-.98,2.58,0,.12-.12,1.1-.25,1.23,0,.12-.98,1.23-.98,1.35-.12,0-.61.98-.74,1.23-.12.25-.61,1.1-.86,1.23-.12.12-.49.25-.61.25-.25.12-2.21,1.59-2.58,1.72-.12,0-.86.25-.98.25,0,.12-.61.37-.61.49-.12,0-.86.25-.98.25-.37,0-2.45.25-2.82.25h-3.07c-.12,0-1.47-.37-1.72-.49l-1.59-.98c-.12,0-.49-.49-.61-.49-.12-.12-.86-.49-.86-.61-.25-.37-1.84-1.59-1.96-1.84-.12,0-.37-.49-.49-.61-.12-.61-.86-2.08-.86-2.21l-.98-2.82c0-.37-.25-1.47-.25-1.47-.37-5.15-.25-10.3,0-15.46Z"/>
    <path class="cls-1" d="M27.96,78.52c0-.12.37-2.21.61-3.19,0-.25.37-1.59.37-1.84,0-.37.49-4.54.49-5.03l.74-4.54c0-.25.37-3.44.61-3.8.25-.86.61-4.54.61-5.15.25-1.35.86-8.96.98-10.8,0-.61.37-4.42.37-5.4v-1.96c0-.74.25-3.56.25-3.93,0-.25.61-2.95.74-3.93,0-.37.25-1.6.25-1.72.12-.25.86-2.94.86-3.44.12-.12.25-1.47.37-1.72,0-.12.37-1.1.37-1.23,0-.25.37-1.35.37-1.59l.98-6.13c0-.98.61-3.44.61-3.68s.86-2.82.98-3.19c0-.25.49-1.84.49-2.21,0-.25.37-.98.37-.98.12-.12.74-.86.98-.98l.74-.25,2.09-1.23c.12,0,.86-.37.98-.37h.49c.49,0,1.72.37,1.72.37.12,0,.74.37.98.49,0,.12.37.25.37.49.12,0,.49.61.61.74,0,.25.37.61.37.74,0,0,.12,1.35.25,1.72.12.37.25,1.96.25,2.09,0,.37.37,4.42.37,5.64v.86c0,.25-.25,1.72-.37,1.84l-.25.61v2.33c0,.12.25,1.1.25,1.1,0,.37.37,1.72.37,2.09.12.25.49,2.45.74,2.82,0,.25.25,2.82.37,3.07,0,.12.25.98.25,1.1s.25,1.96.25,2.09.37,1.35.37,1.59l.98,4.17.25,1.1.74,2.45.25.86c0,.12.25,1.1.25,1.23,0,.37.37,1.59.37,1.72s.25,1.1.25,1.35c.12.12.25,1.35.61,1.47,0,.12.25,1.35.25,1.47,0,.25.74,3.31.86,4.29.12.25.25,1.47.37,1.59,0,.12.37.86.37.98,0,.25.49,2.94.49,3.31.12.25.61,2.21.74,2.33,0,.25.25,1.59.25,1.72,0,.37.25,2.33.25,2.82l.37.25c.12.37.25,1.84.25,1.96.12.12.25.86.25.98.25.49.74,3.56.86,3.8,0,.25.37.86.37.98.12.37.25,1.23.25,1.35s.25,2.21.25,2.58l.74,1.23c0,.12.25.86.25.86v.98c-.12.25-.98,1.23-1.23,1.35,0,0-.98.37-1.47.37h-1.1c-.25,0-.86-.37-.98-.37l-1.23-1.35c-.12-.25-.61-2.58-.61-2.82,0-.12-.49-2.33-.49-2.58-.37-.25-.49-1.35-.61-1.59,0-.25-.25-2.08-.25-2.33,0-.12-.37-1.23-.37-1.47l-.98-6.26c0-.37-.12-1.59-.25-1.72,0-.49-.37-2.08-.61-2.58-.12-.12-.25-.86-.25-.86l-.37-.37c-.37.12-2.21.12-2.58,0-.25,0-1.96-.25-2.09-.25-.74,0-2.7-.37-2.7-.37h-5.15c-.25,0-1.72.37-2.09.37-.12.12-.25.74-.37.98,0,.25-.37,1.1-.37,1.23v.61c0,.37-.61,4.42-.61,5.03v8.83c0,.37-.49,3.56-.74,4.54,0,.25-.25,1.1-.25,1.35,0,0-.49.37-.61.49-.12,0-.61.25-.74.25,0,.25-.25.49-.25.61s-.12,1.1-.25,1.1c0,.12-.37.37-.37.49-.12,0-.49.25-.49.25-.25,0-1.47.25-1.72.25h-.74c-.25-.12-1.35-.61-1.47-.98,0,0-.37-.74-.37-.86v-1.96c0-.12.37-.49.37-.74ZM48.69,52.51c.12.12,1.23.25,1.59.37,0,0,.37-.25.37-.37v-1.96l-1.1-4.79c-.25-.86-2.09-7.97-2.21-8.96,0-.12-.25-1.35-.25-1.6-.12-.12-.61-1.96-.74-2.08,0-.25-.49-2.7-.49-2.94,0-.12-.37-1.1-.37-1.23s-.37-1.6-.37-1.96c-.12-.25-.25-2.09-.49-2.21-.12-.98-.49-3.68-.49-3.93-.12-.98-.86-3.8-.98-3.8l-.25-.25c0,.37-.49,2.94-.61,3.56l-.74,4.42c-.12,1.23-.74,5.28-.86,5.64l-1.35,5.77c-.37,1.59-1.1,6.13-1.35,6.38,0,.37-.37,4.17-.49,5.77v.37c0,.37.25,1.47.25,1.47,0,.12.49.61.74.74,0,0,.37.12.49.25.25,0,1.59.61,1.72.74l.61.61c.25,0,1.23.12,1.35.12,1.1.12,2.09-.49,2.82-.12h3.19Z"/>
    <path class="cls-1" d="M62.8,67.9v-3.31c0-.25-.12-1.47-.12-1.72,0-1.47.25-13.49.12-15.09,0-.49-.37-6.01-.12-6.75-.25-.25,0-2.21,0-2.82,0-.49.12-3.8,0-4.05,0-.49-.25-2.94-.25-3.31,0-1.1-.12-3.43-.12-3.68,0-.74.61-7.24.61-8.1,0-.12-.12-1.35-.25-1.72.12-.12-.12-.86-.12-.98s.25-2.08.25-2.21c0-.37-.12-1.23-.12-1.35-.25-.12-.74-2.94-.86-3.19,0,0,0-.37.12-.49v-.49c.12-1.35.74-4.54.74-4.66.25-.37.61-1.59.74-1.72.37-.12,1.23-.25,1.35-.25.37,0,1.47,0,1.96.12.37,0,1.96.12,1.96.12.12,0,.61.25.86.37.12,0,.49.49.61.61-.12.12.37.86.37.98.12.25.37,2.21.61,2.45-.25.12.61,1.47.86,1.59,0,.12.49,1.23.61,1.47,0,.12.61,1.23.74,1.35,0,.12.25.74.25.74,0,.25.49,2.94.61,3.31.12,0,.74.61.86.74l1.1,3.68c0,.25.61,1.35.61,1.35.12.37.25,2.58.37,2.7,0,.25,1.1,2.09.86,2.33.25.37.49.74.61.74,0,.12.37.37.61.49h.25c.12-.12.49-.49.74-.61,0-.12.74-1.23.98-1.47.12.12.98-3.93,1.1-4.05,0-.12.86-.74.86-.86l1.96-3.19c.25-.49,1.96-3.68,2.09-4.17.12,0,.37-.25.49-.25l.49-.25c0-.37.98-2.33,1.23-2.58.25-.61.86-1.96.86-2.09.25-.37,1.96-1.35,2.09-1.47.12-.12.25-.49.25-.74.25-.12.74-1.23.74-1.35.12,0,.25-.49.25-.61s.49-.37.61-.49c.12-.12.86-.49.98-.49.25,0,1.72-.25,1.96-.25h.98c.25,0,1.1.12,1.1.12,0,0,.61.25.74.49.12.12.74.25.74.25.12,0,.25.25.25.25l.37.74c0,.12.37,1.23.37,1.59,0,.12.37,1.47.37,1.72v1.23c.12,1.1-.25,6.13-.25,7.24-.12,1.47-.49,6.01-.49,6.5,0,.61,0,3.8-.12,4.78-.12.37-.12,3.31-.12,3.68,0,1.35-.37,6.99-.61,7.97,0,.49-.49,4.29-.61,4.78.12.49,0,3.68,0,4.42v1.72c-.12.86-.25,7.36-.25,8.22.12.74,0,2.7,0,2.94.12.37.37,2.7.37,2.94-.12.49-.25,4.05-.25,4.42v8.34c0,.12,0,.74-.12.98v.86c-.25,0-.37.37-.49.61,0,0-.61-.37-.61-.25,0,0-.25.25-.25.37s-.25.61-.25.61c-.12.25-.25.37-.61.49l-.49.98h-.61c-.37-.12-1.72,0-1.96,0l-.74-.61c-.25,0-1.23-.37-1.23-.61-.12-.25-.49-.98-.49-1.35.12-1.1.25-5.77.37-6.62,0-1.47.25-5.52.25-5.64s-.12-1.1-.12-1.23c0-.25,0-3.07.12-3.56v-2.82c0-.25.37-2.7.37-2.94.25-.25-.25-1.96-.25-2.09v-3.19c.25-.86.74-7.97.86-8.96l.49-9.94c.12-.12-.12-1.72-.12-1.84.12-.98.61-9.69.49-10.8.12-.49,0-3.19,0-3.8l-.25-.74h-.49s-.37.74-.49.86c-.86.74-2.58,3.19-2.7,3.56l-.74,1.6-.61,1.23c0,.12-.37,1.35-.37,1.47s-1.84,3.19-2.21,4.29c-.25.37-1.84,3.07-2.09,3.8-.74.86-.86,2.82-.86,2.94-.12.12-.86.98-1.23,1.1l-1.35.61c-.12-.12-1.1.49-1.23.49-.37.25-1.1.49-1.47.49-.12-.12-.98-.74-1.1-.98-.37-.12-1.23-.86-1.47-.98,0-.12-.37-.61-.37-.74-.12-.12-.49-.74-.49-.86-.25-.12-.25-.86-.37-.86,0-.12-1.23-4.29-1.35-4.42,0-.12-.37-1.1-.49-1.47-.12-.25-.49-1.72-.49-1.84-.12-.49-1.47-3.31-1.47-3.56-.49-.86-.98-3.68-1.1-4.05,0-.25-.37-.86-.49-1.1l-.37.61c0,.12-.12,1.59-.12,1.96v2.58c0,.12.37,2.21.37,2.58.12.74-.12,10.06-.12,10.79v5.03c.12.49,0,2.45,0,2.7,0,.12.25.98.25,1.1v3.07c0,.37-.12,4.05-.12,4.42v5.64c0,.25.12,2.45.25,2.7,0,.37.25,2.58.37,3.19-.12.25,0,1.96,0,1.96,0,.12.12.86.12.98.12.12-.49.98-.37,1.1.25.12.61.86.61.98-.12.61.12,2.33.12,2.45.12.25-.12,3.8-.12,5.03v.74c0,.25-.12.74-.12.74,0,.12-.49.86-.61.98,0,0-.12.25-.25.25s-.98.86-1.1.86c0,0-.12.12-.25.12,0,.25-.74.74-.86.86-.12,0-.61.37-.61.37h-.74c-.12-.12-.61-.12-.61-.12-.49-.25-1.96-1.47-2.45-1.59,0,0-.25-.37-.25-.49-.12,0-.25-.37-.25-.37l.98-9.45Z"/>
    <path class="cls-1" d="M107.45,77.66v-1.35c0-.49-.25-5.15-.25-5.77v-8.34c0-.98-.25-9.94-.25-11.04-.12-4.29-.12-24.05,0-28.46-.12-.49-.25-3.56-.49-4.05,0-.12-.25-1.72-.25-1.84-.12-1.47-.74-4.42-.74-4.54-.12-1.1-.25-6.38-.25-7.36-.25-.25,0-1.72-.12-1.96v-.49c0-.25.25-1.23.25-1.47l.37-.61c.12-.12.25-.25.37-.25.61,0,4.54-.12,5.15-.12,1.23,0,4.29.12,4.42.12.37,0,2.33.12,3.07.25.25,0,1.35.37,1.47.37.61.12,2.82.98,3.31,1.35,0,0,.86.74,1.1.86l.74.74.49.25c.37.37,1.35,1.84,1.47,2.09l.98,3.07c0,.25.12,2.58.25,2.94,0,.25.12,1.23.25,1.47,0,1.35.37,6.62.37,7.85v.74c0,1.35-.37,5.64-.37,5.89,0,.49-.25,1.84-.25,2.09-.12,0-.49,1.23-.74,1.59-.12.12-.49,1.1-.49,1.1-.12.12-.74.61-.74.74-.25.12-6.62,2.82-6.87,2.82,0,.25-.25.37-.25.49,0,0,.25.37.25.49.25.25,4.29,1.47,4.54,1.59,0,.25.61.86.74.98.12.37,3.19,2.7,3.31,2.82.12.49,1.47,3.56,1.84,4.05,0,.12.49,1.35.49,1.47l.37.37c.12.12.25.49.25.49l.86,2.7c0,.49.25,1.72.25,1.84v8.34c0,.49.61,4.66.61,5.03,0,.12.12.86.12.98,0,.37-.12,1.23-.12,1.35,0,.49-.12,2.94-.37,3.43,0,0-.25.25-.25.37l.25.49v1.23s-.12.61-.25.74l-1.1,2.33c0,.12-.25.49-.25.49l-.37.37c-.37.37-1.96,1.96-2.09,1.96-.12.12-.86.49-.98.74-.12,0-1.23.37-1.72.49l-2.82.98c-.25,0-1.23.37-1.23.37h-4.42c-.37,0-3.07-.49-3.8-.61-.12-.12-.86-.25-.98-.49h-.37c-.37,0-1.96-.12-2.21-.25-.25,0-2.09-.37-2.21-.49-.12-.25-.86-.61-.86-.74-.12,0-.61-.98-.74-1.1v-.86l1.23-1.1ZM113.22,33.25c.25,0,1.1-.25,1.23-.25l1.59-.98c.12-.12.49-.25.74-.25.12-.12,1.59-.61,1.96-.74.12,0,1.1-.37,1.1-.37.25,0,.86-.37.98-.37s.49-.25.49-.25c.25-.12.61-2.09.86-2.33,0-.12.37-.86.37-.86.12-.61.25-2.7.25-2.94v-10.06c0-.37-.25-1.84-.25-2.21-.12-.61-.74-2.33-.74-2.58-.12-.37-.86-1.6-.98-1.84,0-.12-.49-.74-.61-.86l-1.84-.86c-.25-.12-1.84-.25-2.09-.25s-2.58.12-3.07.25c0,0-.49.25-.61.25-.12.49-.37,2.33-.37,2.7v6.62c0,.49.37,4.29.37,4.79,0,1.96.25,11.16.25,13.13l.37.25ZM114.69,77.66h2.09l.61-.49c.37,0,2.82-.25,3.19-.25.25,0,1.23-.37,1.59-.37.49-.12,1.72-.49,1.84-.49.49-.25,1.72-1.1,1.84-1.23,0,0,.37-.86.37-1.23l.37-1.47c0-.49.37-2.94.37-3.56v-1.84c-.25-.74-.61-6.5-.74-7.36v-.98c0-1.23-.37-5.03-.37-5.4,0-.12-.12-.98-.25-1.23-.12-.37-.61-1.84-.61-1.96l-.61-1.23c0-.25-.61-.86-.61-.98l-.25-.61c-.37-.25-1.1-1.84-1.35-1.96-.37-.49-1.23-1.59-1.35-1.59,0,0-1.23-.37-1.84-.74-.12,0-1.1-.12-1.23-.25-.86-.12-4.17-1.23-4.91-1.47v13.62c0,.86.37,7.48.37,8.34v4.78c.12.37.25,2.94.37,3.56,0,.12.12.98.37,1.1,0,.12.25.25.25.37v3.8l-.25.61c.12.12.61.25.74.49Z"/>
    <path class="cls-1" d="M136.16,76.8c0-.12.12-.61.25-.74-.12-.49.25-4.54.25-5.15,0-1.1.37-3.8.37-3.93s-.37-2.09-.37-2.45c0-.61,0-6.13-.12-6.75,0-.49-.25-4.54-.25-5.03-.12-.49,0-2.82,0-3.43-.12-.37,0-4.66-.12-5.15v-8.1c0-.12.25-1.72.25-1.84v-3.44c0-1.1.25-9.45.25-10.55.25-1.72.25-9.2.25-10.8,0-.12-.25-1.96-.25-2.33,0-.12.25-1.72.25-2.21s.25-2.08.25-2.58c0-.12.25-.49.25-.49l.25-.49,4.29.25s.49.37.61.49c.12,0,.86.37.86.49.12,0,.25.37.37.37v.98c0,1.84-.49,10.43-.86,12.27,0,1.1-.37,8.46-.25,10.55,0,.61-.25,5.4-.25,5.89,0,.74,0,6.62-.37,7.36,0,.12.37,3.31.12,4.42v4.05s.37,3.31.37,4.54c.12.74-.12,6.38-.25,7.12,0,.12.37,2.09.37,2.33,0,.12.25,1.59.12,1.72-.12.37.12,3.31.12,3.8-.12.86.12,3.19.12,3.44,0,0-.12,1.96,0,2.58,0,.25.49.86.49.98l.25.25c.37,0,2.94.49,3.31.37.25.12,2.21-.12,2.33-.12s.61.25.74.12c.12.37,1.72.25,1.84.25.25.12,1.96.25,2.21.25.49-.12,4.05-.74,4.66-.37,0,0,.98,0,1.23.12,0,0,.61,0,.61.12.12.12.49.61.49.61,0,0,.25.25.25.37,0,.25.61.86.61.86,0,.12.61,1.1.49,1.35-.12.12-1.23,1.35-1.23,1.6,0,0-.98.49-.98.74-.49,0-2.82-.12-3.31,0-.86,0-3.19.12-3.19.12-.49,0-3.07-.25-3.56-.12,0,0-.74,0-.86-.12-.25.12-.98.12-.98.12-.25,0-2.21.37-2.33.37h-5.4l-.86.12c-.12,0-1.23-.49-1.47-.74-.25,0-.61,0-.61-.12-.12,0-.74-.61-.98-.61-.12-.12-.25-.37-.25-.37-.12-.12-.37-.49-.37-.61-.12-.12-.37-.98-.61-1.23v-.49c.25-.25.49-.86.61-.98Z"/>
    <path class="cls-1" d="M162.78,74.65v-6.99c0-.61.25-5.15.25-5.64v-6.62c.12-.61.25-4.79.37-5.4v-1.84c0-1.23.37-9.45.37-10.67v-1.59c0-.61-.37-5.03-.37-5.64-.12-.74,0-9.45,0-10.18,0-.49-.25-4.29-.37-5.4,0-.61-.12-2.94-.25-3.43,0-.49-.37-1.72-.37-1.96-.12-.49-1.47-4.29-1.72-4.79v-1.84c0-.12.37-.49.37-.61.12,0,.25-.37.25-.37.25-.12,1.84-.37,2.09-.37h5.64c.12,0,1.47.37,1.59.37.37,0,1.84.37,1.96.37.25,0,1.96-.37,3.68,0,.12,0,1.23-.37,1.35-.37h4.29s.74.37.86.37c.12.12.49.25.74.25,0,.12.37.98.49,1.23v.74l-1.47,2.7s-2.58.25-3.56.25c-1.35,0-7.97-.12-9.32-.12v1.84c0,.49-.25,5.03-.25,5.64v20.12l.25,1.59s3.31-.12,4.78.37c.12,0,1.23.25,1.59.25.61,0,2.58.25,2.94.25h2.7c.86.37,2.94,1.59,2.94,1.72v2.09c0,.25-.12.37-.37.49-.12.12-.74.49-.74.49-.25,0-.98.37-1.35.37h-.49c-.49,0-1.59.25-1.72.25h-.98c-.37,0-2.7-.25-2.94-.25h-1.59c-.25,0-3.07.86-3.56.86h-.86c-.12,0-.25.37-.37.37,0,1.47-.25,6.62-.25,8.1,0,2.82-.37,13.5-.37,13.74v4.79c0,.74.74,3.8.61,4.29l.37.37c.25.25.74.37.98.49,0,0,1.1.12,1.84.25.25,0,1.72.25,1.84.25.86.12,7.73-.49,8.59-.37.12,0,.74.12.86.12.25,0,.61.12.61.12.37,0,.74.25.98.37.25.12.86.98.86,1.1v1.72c0,.25-.25.98-.25.98,0,0-.49.37-.61.49-.12.25-.61.86-.61.86-.25.12-.61.25-.74.25h-1.47c-.37,0-3.19-.49-3.68-.49-.25,0-1.96,0-2.33.12-.25,0-2.82.37-3.07.25h-2.21c-.12,0-1.1.12-1.35,0-.12.12-.86.12-1.1.37,0,0-.98.12-1.1.12s-.61.12-.74.12c0,0-.61.12-1.1.12h-1.23c-.25,0-.86-.25-.98-.25,0,0-.49-.74-.61-.98-.12,0-.25-.49-.37-.74l-.61-1.84v-2.94c0-.12.12-.61.37-.61Z"/>
    <path class="cls-1" d="M187.93,59.81v-.98c0-.12.12-.61.25-.86,0-.12.37-.98.37-1.23.25,0,.74-.86.86-.98.25-.25,2.21-2.08,3.07-1.47.37,0,1.35.49,1.59.74,0,0,.25.61.25.74v1.47c0,.12-.25,1.35-.25,1.96,0,.12-.25,1.47-.25,1.59,0,0-.12.86-.12,1.23,0,.12.12.74.12.74,0,.37.25,1.72.25,1.96s.25,2.45.25,2.94c0,.74.37,3.68.37,4.29v1.72c0,.25.12.86.12,1.1.12,0,.49.49.74.49h.49c.74,0,2.94.61,2.94.61h3.68c.25-.37.98-.74,1.1-.86,0-.12.49-.74.61-.98,0,0,.12-.61.25-.74.12-.49.74-1.72.74-1.84.12-.12.25-.98.25-1.23,0,0,.12-1.59.12-2.21s-.12-2.33-.12-2.45-.25-.98-.25-1.23v-1.59c0-.12-.37-1.47-.37-1.96,0-.12-.25-1.1-.25-1.23l-.12-.37c-.12-.37-.37-2.58-.61-2.82-.12-.61-.37-2.08-.37-2.08,0,0-.61-.98-.74-.98-.12-.37-.98-2.33-1.23-2.7,0-.12-.74-1.23-.74-1.47,0-.12-.37-.61-.37-.74-.12-.37-1.47-2.58-1.47-2.82l-1.1-1.35c-.12-.12-1.1-1.59-1.23-1.96,0-.37-.61-1.23-.61-1.23l-.98-1.23-.98-1.59c0-.12-.49-.98-.49-1.1-.12,0-.61-.86-.61-.86,0-.12-1.1-.98-1.1-.98-.12-.12-.12-.86-.25-.98,0,0-.25-.37-.37-.49-.25-.37-.98-1.72-.98-1.84l-.61-.98c0-.12-.49-.98-.49-1.1l-.25-.74c-.12-.12-.25-.86-.49-.98,0,0-.12-.25-.25-.25,0,0-.37-.74-.37-.86s-.12-.86-.12-.98c-.25-.74-.37-2.94-.49-3.68l-.25-.25v-1.35c0-.12.25-.98.25-.98v-.74c0-.49-.37-2.45-.37-2.7v-1.1c0-.12.12-1.84.12-1.96,0-.74.25-3.56.25-4.05l.86-2.45.12-.12c0-.12.25-.61.25-.61.25-.37.61-.98.74-.98.37-.25,1.84-2.09,2.45-2.33.12,0,.37-.25.49-.25.49-.25,1.47-.61,1.59-.61.86-.25,3.68-.86,4.05-.86.12,0,1.35.12,1.72.25.25,0,2.09.61,2.58.86l.49.37c.74.25,1.84.98,1.84,1.1,0,0,.74.49.86.61.12.37,1.1,1.47,1.23,1.84l.37.37c.12.12.61,1.23.86,1.47,0,.12.49,1.35.49,1.35.12,0,.12.61.25.61,0,.12.49,1.23.49,1.47,0,0,.12.86.12.98.12.25.25,1.59.25,1.72v1.23c0,.98-.25,7.12-.25,8.1v.86c-.12,1.72-2.33,2.58-4.05,2.82h-.49c-.12,0-1.1-1.35-1.35-1.72,0,0-.25-.25-.25-.37-.25-.49-.37-1.47-.37-1.59v-5.03c0-.25.37-2.09.37-2.58,0-.25.25-1.96.25-2.21,0-.37-.37-1.96-.37-2.21v-1.1c0-.12-.12-.49-.25-.49,0-.12-.61-.74-.61-.86l-.12-.12c0-.12-.37-.37-.49-.49-.49-.25-1.72-.98-1.96-.98-.12-.25-1.47-.37-1.6-.37h-1.35c-.12,0-.86.74-.98.98l-.61.98-.74.86c0,.37-.12,2.82-.12,3.31-.12.12-.12,4.29-.12,4.66l.74,5.4c0,.25.25,1.47.25,1.84,0,.12.49.61.49,1.1.12.37.98,1.59,1.1,1.84l.12.12s.25.61.25.86c.12,0,.25.37.49.49.25.74.98,1.84.98,1.84l.61.74c0,.12.37.98.37.98.25.49,1.47,2.21,1.84,2.45.12,0,.49.37.49.37,0,0,.25.49.49.61,0,.37.25.98.25,1.1.12,0,.86.86.98.86,0,.25.37.98.37,1.23l.98,1.96c0,.12.61.61.61.74l1.84,3.93c.12,0,1.23,1.96,1.35,2.21,0,.12.37.61.49.74l.37.61c.12.12.37.74.37.86.12.12.49.98.49,1.1s.25,1.1.25,1.23c.25.37.86,2.94.98,3.43,0,.25.49,2.21.61,2.82,0,.25.25,2.08.25,2.21.25,0,.37.86.37.98,0,.37.25,2.33.25,2.82v1.72c0,.25-.25,1.59-.25,1.96v1.72s-.12.61-.37.61c0,.12-.25,1.23-.25,1.35,0,0-.25.37-.25.49l-.37.98c-.12.49-.74,1.84-.98,2.09l-.74,1.35c-.25.25-1.35.86-1.47.98,0,.25-.12.61-.25.74-.12.12-.86.86-1.1.86,0,.12-.49,0-.49,0l-2.09.98c-.25.12-.74.25-.86.25-.12.12-1.72.37-1.84.49-.12,0-.98.12-1.23.25-.12,0-1.23.25-1.47.25,0,0-.98-.25-1.1-.25h-.98c-.49-.12-2.94-.61-3.07-.74-.12,0-1.96-.61-2.82-1.23-.12,0-.86-.74-1.23-.86-.37-.12-.74-.49-.74-.74-.12-.12-.61-.61-.74-.98,0-.49-.12-2.21-.12-2.21,0-1.1-.25-9.32-.25-10.31,0-.37-.12-2.94-.12-3.31v-.49c0-.25.12-1.1.12-1.35Z"/>
    <path class="cls-1" d="M304.96,83.44l-1.72-1.72v-3.19c.25-.37.49-2.21.61-2.58,0-4.66.25-31.28.25-36.19V10.2c-.12-.37-.61-2.7-.86-3.19,0-.12-.49-1.59-.49-1.84v-.86c0-.12.25-.61.25-.74.25-.12.98-.98,1.1-.98.37-.25,1.84-.86,2.21-.98h6.62c.37,0,2.7.25,2.94.25h1.84c.25,0,1.23.37,1.35.37.25.12,1.47.25,1.72.37h.49c.25-.12,2.33-.25,2.58-.37h.25c0,.12.49.25.49.37.25.12,1.59,1.35,1.96,1.35,0,.12.25.25.25.37v.86c-.12.25-.25,1.35-.25,1.59l-.49.61s-.37.37-.49.37h-3.8c-.25,0-.86-.37-.98-.37h-.61c-1.23,0-6.62.74-7.73.98-.12,0-.61.37-.61.37l-.37.37s-.37.74-.37.86c0,1.59-.25,10.31-.25,11.66,0,.49-.25,2.94-.25,3.31v9.94l.25.61c.61,0,3.44.37,4.29.37.25.12,3.19.49,3.56.61h3.31s.25.25.25.37l.37.49.25.37.98.61c.12,0,.25.37.25.37v1.59c0,.25-.25.86-.25,1.1,0,0-.61.37-.61.49-.12.12-.49.25-.61.25h-9.2c-.37.25-1.1.37-1.35.37-.25.12-1.47.25-1.84.37v38.89s-.37.98-.74,1.35c0,0-.25.37-.37.37s-.49.25-.49.25h-.37c-.12,0-2.45-.61-2.58-.61-.12-.12-.61.12-.74.37Z"/>
    <path class="cls-1" d="M327.9,1.8c.12-.12,1.59-.74,1.72-.98.12,0,.49-.49.61-.49,0-.12.61-.12.86-.12.37,0,.86,0,.98.12l.61.49c.12,0,1.23.61,1.35.61,0,.12.37.25.37.37,0,.25.49,1.35.49,1.35l.74.98v5.4c-.12.25.49,1.47.25,1.72,0,.37-.25,1.6-.25,1.72v17.3c0,1.23.25,10.92.25,12.02v10.67c0,.12-.25,3.07-.12,4.05,0,.25.25,2.82.25,3.07,0,.61-.12,3.56-.12,3.8.25.86.61,4.29.61,4.91,0,.12.25.98.37,1.35,0,.25.49,1.84.61,2.09,0,.37.25.86.25.98.25.12.74.98.86,1.35,0,.12.49.98.61.98.12.25,1.1,1.1,1.23,1.23l2.7,1.84c.25.12.74.25.86.25,0,0,.74.12.86.12.25,0,.98-.12.98-.12.25,0,1.1-.12,1.23-.25,0,0,.49-.61.61-.61h.86s.12-.49.25-.61c0-.12.12-.74.25-.86,0-.37.37-1.1.37-1.35l.61-3.19c0-.25.25-1.84.37-2.21,0-2.7.12-15.58.25-18.16,0-.86.25-4.29.25-5.03v-26.25s-.12-1.84-.25-2.58c0-.12-.25-2.09-.25-2.21-.12-.74-.37-6.01-.37-6.62,0-.12-.25-.98-.37-1.23l-.25-.61v-1.96c.12-.61.49-2.33.61-2.58,0-.12.74-.86.86-1.1.12,0,1.23-.61,1.35-.61h.98c.25-.25,1.84.12,2.82.98.25.12.37.37.61.61.61.61.86,1.47.86,2.33l-.12,41.83v3.68c0,3.31-.12,16.93-.12,19.14,0,.37-.25,3.31-.25,4.17,0,.12-.37,1.47-.37,1.96-.12.37-.25,1.47-.37,1.47,0,.25-.37,1.59-.61,1.84,0,.37-.49,1.59-.49,1.72-.12.12-.25.61-.49.74,0,.12-.61.74-.86.86-.12.12-.61.49-1.1.74-.12,0-.98.37-1.23.49-.12.12-1.72.74-2.09,1.1-.49.12-1.72.61-1.72.61h-3.93c-.12,0-.98-.25-1.23-.25-.25-.25-2.21-.74-2.33-.86-.49,0-2.21-.98-2.7-1.1-.61-.49-2.58-1.72-2.82-2.09-.25-.12-1.72-1.59-1.96-1.96,0,0-.86-1.47-1.23-2.09,0-.12-.37-.61-.37-.61-.12-.37-.49-1.72-.49-2.09l-.74-2.94c0-.25-.12-1.96-.25-2.33-.12-1.35-.61-5.03-.61-5.15-.12-1.1-.37-7.61-.37-9.32-.25-2.45,0-24.54,0-27.24-.25-2.21-.37-12.27-.49-14.35,0-.25-.25-2.7-.25-2.94,0-.74-.25-3.68-.25-4.17v-2.09c0-.37.25-1.72.25-1.72Z"/>
    <path class="cls-1" d="M364.58,72.15c0-.49.37-4.29.37-4.79v-.49c0-1.96-.49-11.04-.61-13.13-.12-1.23-.12-5.15-.12-5.77,0-.12-.25-2.94-.25-3.68-.12-.37-.37-2.94-.49-3.43-.12-1.84-.49-6.62-.49-6.75,0-.37-.61-6.38-.61-6.75l-.37-2.94c0-.49-.25-3.93-.25-4.29,0-.61-.12-3.19-.12-3.68V7.87c0-.61.12-1.84.12-1.96.12-.25.86-1.23,1.23-1.47.37-.25,1.96-1.1,2.33-1.23h1.35c.12.12.61.25.86.49.12,0,1.1.61,1.35.74.12.25.61.61.61.61.12.12.12.98.12,1.1l.49,1.72c.49.74,1.72,3.8,1.84,4.29.25.25.74,1.47.86,1.84,0,.12.98,1.84.98,2.08.25.25.86,2.09.86,2.33.25.61,1.72,3.68,2.21,4.29l1.23,2.94c.12.12.25.61.25.61.25.37.61,1.72.74,1.72.12.25.98,6.01,1.1,6.5,0,0,.25.37.37.49,0,.25.49.98.49,1.1.12,0,.74,1.1.74,1.23l1.23,2.7c.25.12.37.98.49,1.1.12.25,1.1,2.21,1.1,2.58l.86,2.08c0,.12.49,2.09.49,2.21l.37,1.1c.25.74,1.59,4.05,1.72,4.66,0,0,.25.37.25.49s.61.98.61,1.1l1.1,2.21.86,1.72.86,1.72c.25.37,1.35,2.45,1.72,2.94.12-.12.37-.98.49-1.47,0-.25.37-1.96.37-2.45v-5.28c0-.61-.37-2.58-.37-3.43v-19.14c-.12-.25-.25-1.84-.25-2.21v-7.36c0-.61.25-3.31.25-3.56v-.49c-.12-.37-.37-2.45-.49-2.7,0-.25-.37-2.33-.37-2.7,0-.25.25-3.07.25-3.31-.12-.49-.25-2.94-.25-3.56,0,0-.25-.74-.25-.86,0-.37.25-.86.25-.86,0-.12.12-.74.25-.86l1.23-1.59s1.47-.37,1.84-.49h.25c.25,0,.86.25,1.1.25.25.12,1.23.86,1.47.86l.37.37c.12.12.25.61.25.61,0,.86.25,4.05.25,4.78.12.61,0,4.29.12,4.66v1.47c0,.12.12,1.59,0,1.84-.12.74-.12,2.58-.12,2.82v3.56c0,.12.25,2.21.25,2.58.12,1.72-.25,9.32-.25,11.16.12.25-.25,1.72-.12,2.08v2.45c0,.12.12.74.12.98,0,.49-.25,3.19-.25,3.93v3.68c0,.25.25,2.82.25,3.19.12,1.35-.25,8.59-.12,10.3,0,.12.25.61.25.74.12.12.25.86.25.86v11.29c.74.98.37,6.01,0,5.52,0,0-.37.49-.49.61l-1.35.98c-.12,0-.61.25-.86.25h-2.08c-.25,0-1.72-.74-1.96-.98-.12-.25-.74-.74-.74-.86-.12-.25-.49-2.21-.49-2.33-.25,0-.37-.61-.49-.61,0-.25-.74-2.21-.86-2.58-.12-.25-.98-2.58-1.1-2.7,0-.12-.49-1.35-.49-1.59-.37-.98-1.96-4.29-2.33-4.91,0-.25-.61-.98-.61-1.35-.12-.12-.86-1.47-.86-1.59-.12-.37-.49-1.47-.74-1.72-.25-.25-2.21-3.31-2.33-3.68-.12-.25-.74-1.6-.86-2.21,0-.12-.61-1.1-.74-1.35,0-.12-.49-1.84-.49-2.08-.12-.12-.61-1.35-.61-1.59s-.86-2.21-.86-2.58c-.12-.37-.49-1.35-.74-1.47,0-.37-.61-1.96-.61-2.21-.25-.12-.49-1.1-.61-1.35-.12-.37-1.23-2.58-1.59-2.82,0-.12-.25-.74-.25-.86-.12-.37-.74-1.84-.74-1.96-.12-.25-.49-1.96-.74-1.96,0-.25-.49-4.42-.61-4.66-.25-.25-.98-2.33-1.23-2.7l-.98-2.09c-.37-1.1-1.84-4.42-2.09-4.91,0-.12-.86-1.1-1.1-1.35,0-.12-.25-.25-.25-.25v1.1c0,.74.49,5.15.49,5.77.25.37,0,3.43,0,3.8,0,.25.37,4.91.61,5.4,0,.25.25,1.96.25,2.08v3.07c0,.86.74,7.73.74,8.59.12.49,0,5.4,0,6.01,0,.25.25,3.19.25,3.31v5.52c0,1.35.12,4.66.25,4.66l1.35,1.84c0,.12.12,5.15.25,7.36v2.94l-.25.37c-.12,0-.61.25-.74.25l-.25.25c0,.12-.61.86-.61.98,0,0-1.1.25-1.84.25h-2.09c-.12-.12-.86-.61-.98-.98,0,0-.12-.49-.37-.49-.12-.12-.25-.86-.25-1.1v-3.43c0-.25.12-4.17.25-5.52Z"/>
  </g>
</svg>