<?xml version="1.0" encoding="UTF-8"?>
<svg id="Layer_2" xmlns="http://www.w3.org/2000/svg" version="1.1" viewBox="0 0 1082.85 155.67">
  <!-- Generator: Adobe Illustrator 30.4.0, SVG Export Plug-In . SVG Version: 2.1.3 Build 42)  -->
  <defs>
    <style>
      .st0 {
        fill: #3693c6;
      }

      .st1 {
        fill: #272525;
      }

      .st2 {
        fill: #fff;
      }

      .st3 {
        fill: #e39e52;
      }

      .st4 {
        fill: #572c0f;
      }

      .st5 {
        fill: #320b00;
      }

      .st6 {
        fill: #8f552b;
      }
    </style>
  </defs>
  <path class="st1" d="M394.11,64.11s-.01-.03-.02-.05c-1.7-4.66-4.06-8.81-7.07-12.46-6.93-8.36-16.51-12.54-28.8-12.54-5.08,0-9.47.94-13.16,2.82-.91.45-1.76.97-2.58,1.54-4.17,2.91-7.03,7.15-8.58,12.73h-1.07l1.42-18.38V1.62h-26.29v129.85h20.03l2.71-12.77.69-3.24h1.07c1.55,5.83,4.59,10.19,9.13,13.11,4.52,2.91,10.07,4.36,16.63,4.36,3.13,0,6.14-.36,9.03-1.09,3.82-.95,7.43-2.53,10.82-4.74,5.96-3.88,10.67-9.46,14.13-16.73,3.46-7.28,5.19-15.84,5.19-25.66,0-7.71-1.09-14.58-3.28-20.6ZM334.24,72.35c3.82-6.06,9.49-9.1,17-9.1,6.19,0,11.06,1.9,14.58,5.73,3.51,3.81,5.27,9.12,5.27,15.91,0,7.64-1.72,13.52-5.19,17.65l.02.02c-.89,1.05-1.85,1.97-2.9,2.75-3.05,2.3-6.8,3.44-11.24,3.44-3.35,0-6.59-.58-9.75-1.73-3.16-1.16-5.76-2.83-7.79-5.01v-29.66Z"/>
  <g id="Layer_1-2">
    <g>
      <g>
        <path class="st1" d="M64.7,16.18v70.65c0,9.72-2.06,12.82-2.7,13.54-.94,1.08-2.74,2.5-7.52,2.5-9.13,0-10.69-2.93-10.7-9.51l.29-22.19H.97v9.23c-.64,4.22-.97,8.56-.97,12.91,0,17.75,5.44,30.96,16.16,39.28,9.96,7.72,22.85,11.64,38.32,11.64,22.42,0,38.35-8.45,46.85-24.35,4.71-8.79,7.15-19.86,7.15-33.04V16.18h-43.78ZM88.48,86.84c0,26.21-10.17,37.39-34,37.39-10.93,0-19.69-2.5-26.06-7.44-5.67-4.4-8.42-12.08-8.42-23.48,0-.72.01-1.43.03-2.14h3.78l-.03,2.13c0,18.52,11.48,29.57,30.7,29.57,11.89,0,18.83-5.06,22.55-9.3,5.16-5.88,7.67-14.62,7.67-26.74v-50.65h3.78v50.66Z"/>
        <path class="st1" d="M203.62,111.91h-4.37s-1.74-8.45-1.74-8.45c.63.45,1.27,1.07,1.8,1.89.51.79.63,1.36.63,1.37,0-.01-.07-.38-.07-1.27v-20.54c0-9.35-2.1-17.37-6.25-23.96-2.23-3.53-5.05-6.66-8.46-9.36-9.2-7.27-22.89-10.81-41.88-10.81-6.29,0-12.59.44-18.71,1.31-6.16.87-10.91,1.78-14.51,2.77l-1.58.43-5.83,1.6.32,42.79,1.56-.52c-3.43,5.27-5.21,11.65-5.21,18.88,0,4.16.67,8.12,2.01,11.84.87,2.45,2.04,4.8,3.48,7.02,3.61,5.57,8.73,9.94,15.19,12.98,6.12,2.89,13.14,4.36,20.86,4.36,8.82,0,16.32-1.95,22.32-5.8,1.01-.66,1.97-1.35,2.87-2.08,5.49,5.15,13.07,7.87,22.36,7.87,4.43,0,8.29-.43,11.72-1.32.78-.18,1.54-.4,2.28-.65l6.84-2.28v-28.06h-5.63ZM176.78,115.86l-1.12-4.62.43-.42v-26.07c0-4.56-1.06-8.61-3.18-12.04-2.46-3.98-6.55-6.84-12.52-8.73-4.6-1.46-10.72-2.17-18.72-2.17-5.88,0-11.88.48-17.82,1.41-.36.06-.72.12-1.07.18v-.8c1.4-.24,2.94-.47,4.6-.71,5.19-.74,10.54-1.11,15.9-1.11,17.57,0,25.72,3.53,29.46,6.49,3.06,2.42,7.13,6.89,7.13,17.64v20.54c0,4.49.87,8.02,2.66,10.78,1.03,1.59,3.08,3.92,6.72,5.22v2.77c-.27.01-.55.01-.84.01-8.03,0-10.35-3.07-11.63-8.37ZM121.59,116.01c-1.53-2.35-2.27-4.95-2.27-7.97,0-6.44,2.43-9.08,4.55-10.66.96-.72,2.04-1.35,3.24-1.89-2.59,2.82-4.02,6.45-4.02,10.42,0,5.61,2.75,10.46,7.74,13.67,3.78,2.43,8.7,3.61,15.03,3.61,1.13,0,2.22-.03,3.29-.08-2.29.75-5.07,1.13-8.29,1.13-4.74,0-8.88-.82-12.32-2.45-3.1-1.46-5.38-3.35-6.95-5.78Z"/>
        <path class="st1" d="M299.9,51.63c-.21-.3-.43-.61-.66-.92-3.54-4.74-10.09-9.93-21.85-9.93-6.59,0-12.34,1.89-17.08,5.6-.04.04-.09.07-.13.11-.09-.07-.18-.14-.27-.22-4.7-3.65-10.69-5.5-17.79-5.5-6.33,0-11.98,1.75-16.78,5.2l-1.98-3.91h-29.74v100.85h6.51l99.11.02h6.74v-66.45c0-10.66-1.99-18.78-6.08-24.85ZM277.39,60.78c4.53,0,5.52,1.44,5.94,2.06,1,1.49,2.65,5.22,2.65,13.64v46.45h-2.16v-45.16c0-4.7-1.21-8.58-3.63-11.57-1.34-1.66-3.5-3.52-6.81-4.57.81-.44,2.03-.85,4.01-.85ZM242.12,60.77c1.76,0,4.14.22,5.52,1.3.98.76,1.81,2.51,2.34,4.93l.91,4.11v51.81h-2.17v-45.16c0-4.7-1.21-8.58-3.63-11.57-1.36-1.69-3.58-3.59-6.99-4.62.9-.44,2.18-.8,4.02-.8ZM215.78,71.37v51.54h-2.16v-55.8l2.16,4.26Z"/>
        <path class="st1" d="M394.11,64.11s-.01-.03-.02-.05c-1.59-3.08-3.49-5.94-5.7-8.57l-17.66-12.2c-4.85-1.68-10.21-2.52-16.04-2.52-3.42,0-6.64.37-9.63,1.11-.69.16-1.37.35-2.04.56V1.62h-43.78v141.31h36.19l.67-3.07c5.32,2.9,11.56,4.37,18.59,4.37,8.48,0,16.34-2.27,23.34-6.76,2.03-1.3,3.93-2.76,5.71-4.39,2.03-1.83,3.89-3.88,5.57-6.13l.03-.03c1.92-2.55,3.61-5.36,5.08-8.4,3.78-7.8,5.69-16.94,5.69-27.16s-2.01-19.51-6-27.25ZM323.01,77.44v31.26h-.65l-3.07,14.23h-.05V21.62h3.78v27.62l-2.11,26.73h3.04l-.94,1.47ZM343.01,101.62v-17.74c1.18-1,2.8-1.6,5.37-1.6,4.08,0,5.39,1.4,5.89,1.93,1.37,1.46,2.06,3.92,2.06,7.31,0,2.97-.4,6.97-2.3,9.2l-.35.41c-.86.87-2.14,1.6-4.81,1.6-1.88,0-3.66-.31-5.43-.95-.15-.05-.29-.11-.43-.16ZM354.69,124.23c-3.29,0-6.08-.53-8.33-1.59.83.06,1.67.09,2.51.09,8.31,0,15.36-3.12,20.39-9.01l4.21-4.93-.44-.93c2.19-4.59,3.3-10.06,3.3-16.34,0-8.64-2.52-15.7-7.47-20.98-3.52-3.77-9.94-8.26-20.48-8.26-.43,0-.85.01-1.27.02,1.95-1.01,4.49-1.53,7.58-1.53,8.19,0,14.03,2.41,18.38,7.59l.38.45c4.48,5.58,6.66,12.97,6.66,22.55,0,7.18-1.24,13.39-3.69,18.46-2.33,4.81-5.33,8.35-9.17,10.81-3.79,2.42-7.9,3.6-12.56,3.6Z"/>
        <path class="st1" d="M456.98,29.43c-3.04-5.02-8.25-7.9-14.3-7.9-6.56,0-12.06,3.69-14.7,9.89-1.65,3.87-2.44,9.19-2.58,17.25v.17c0,13.07,1.77,24.66,5.28,34.43l11.65-2.02,6.3,3.84c4.76-7.81,7.84-14.51,9.39-20.48,1.5-5.77,2.26-12.33,2.26-19.5s-1.05-11.96-3.3-15.68ZM456.98,29.43c-3.04-5.02-8.25-7.9-14.3-7.9-6.56,0-12.06,3.69-14.7,9.89-1.65,3.87-2.44,9.19-2.58,17.25v.17c0,13.07,1.77,24.66,5.28,34.43l11.65-2.02,6.3,3.84c4.76-7.81,7.84-14.51,9.39-20.48,1.5-5.77,2.26-12.33,2.26-19.5s-1.05-11.96-3.3-15.68ZM498.11,100.79l-9.78,1.57s-.06.01-.1.01c-1.48.24-3.37.35-5.6.35-6.92,0-12.85-1.61-17.95-4.91,3.79-5.84,6.8-11.01,9.11-15.67,3.38-6.81,5.7-13.24,6.9-19.09,1.16-5.63,1.75-11.99,1.75-18.91,0-13.83-3.37-24.67-10.02-32.21C465.45,4.02,455.33.01,442.35.01s-22.72,4.15-30.02,12.32c-7.1,7.95-10.55,19.89-10.55,36.5,0,10.47,1.25,20.64,3.72,30.24,1.87,7.24,4.4,14.08,7.56,20.42-7.37,9.01-15.12,17.98-23.07,26.72l-.65.71-.03.03-5.57,6.13-8.96,9.86h56.25l8.79-11.15c4.14,2.95,8.52,5.41,13.1,7.36,7.96,3.37,16.37,5.08,25.02,5.08,6.09,0,10.85-.48,14.55-1.47l7.42-1.98v-40.28l-1.8.29ZM419.53,122.94c4.55-5.34,9-10.71,13.32-16.09l4.35-5.42-3.56-5.97c-3.8-6.36-6.76-13.56-8.77-21.38-2.05-7.96-3.09-16.46-3.09-25.25,0-14.1,2.97-20.39,5.47-23.18,3.39-3.79,8.33-5.64,15.1-5.64,12.06,0,20.09,4.1,20.09,24.13,0,5.57-.45,10.58-1.34,14.89-.85,4.16-2.61,8.95-5.23,14.23-2.78,5.6-7.04,12.55-12.67,20.65l-4.62,6.65,5.54,5.9c9.52,10.15,21.55,15.59,35.79,16.2v1.55c-.61.01-1.27.02-1.97.02-5.95,0-11.74-1.18-17.2-3.49-5.59-2.37-10.8-5.87-15.5-10.38l-7.95-7.64-15.96,20.22h-1.8ZM448.63,85.09c4.76-7.81,7.84-14.51,9.39-20.48,1.5-5.77,2.26-12.33,2.26-19.5s-1.05-11.96-3.3-15.68c-3.04-5.02-8.25-7.9-14.3-7.9-6.56,0-12.06,3.69-14.7,9.89-1.65,3.87-2.44,9.19-2.58,17.25v.17c0,13.07,1.77,24.66,5.28,34.43l11.65-2.02,6.3,3.84Z"/>
        <path class="st1" d="M585.39,58.9c-1.57-2.13-3.35-4.09-5.34-5.88-9.33-8.36-21.11-12.26-37.08-12.26s-29.39,4.4-39.51,13.09c-10.58,9.07-15.95,22.07-15.95,38.65,0,3.43.24,6.72.72,9.87,1.52,9.9,5.43,18.34,11.68,25.22.87.96,1.79,1.89,2.75,2.79,9.86,9.19,24.61,13.85,43.86,13.85,13.21,0,25.19-1.62,35.6-4.81l7.07-2.17v-26.18h5.03v-21.32c0-12.57-2.96-22.91-8.83-30.85ZM569.19,122.1c-6.82,1.42-14.42,2.13-22.67,2.13-14.02,0-24.19-2.85-30.22-8.47-5.91-5.52-8.79-13.13-8.79-23.26s2.93-18.3,8.97-23.47c6.49-5.57,15.15-8.27,26.49-8.27s18.21,2.21,23.74,7.16c5.05,4.53,7.51,11.67,7.51,21.83v1.32h-3.47v-6.5c0-9.82-4.77-15.18-8.77-17.94-4.72-3.26-10.94-4.84-19.02-4.84s-13.86,1.42-18.93,4.34c-5.74,3.33-9.75,8.83-11.61,15.9l-2.38,9.04h-1.05l.56,1.88-.43,1.62h.92l2.8,9.37c2.1,7.01,6.63,12.35,13.09,15.44,5.34,2.57,12.28,3.82,21.23,3.82,7.53,0,14.9-.55,22.03-1.65v.55Z"/>
        <path class="st1" d="M682.52,85.14v-36.67l-6.55-2.4c-3.54-1.31-8.66-2.5-15.67-3.64-6.79-1.11-14.22-1.67-22.07-1.67-15.72,0-27.93,2.81-37.35,8.6l-15.49,9.54-8.56,5.26-6.04,3.72h15.2c-.93,3.09-1.41,6.4-1.41,9.89,0,7.39,1.89,12.98,4.52,17.18v40.24l.09.04,6.2,2.48c3.9,1.55,9.49,3,17.07,4.42,7.49,1.4,15.73,2.11,24.49,2.11,16.37,0,28.84-2.76,38.13-8.43,10.59-6.46,16.19-16.69,16.19-29.56,0-8.4-3.01-15.62-8.75-21.11ZM664.66,118.75c-5.97,3.64-15.3,5.49-27.71,5.49-7.53,0-14.53-.6-20.81-1.77-2.85-.53-5.16-1.03-7.04-1.48v-.45c1.16.24,2.34.48,3.56.71,6.78,1.3,14.51,1.96,23,1.96,9.11,0,15.56-.58,19.71-1.76,11.25-3.19,12.12-11.82,12.12-14.39,0-4.82-2.45-8.93-6.71-11.44,3.31.93,5.39,2.01,6.69,2.96,2.7,1.95,3.8,4.18,3.8,7.67,0,5.93-1.98,9.67-6.61,12.5ZM662.52,63.78c-.84-.14-1.71-.28-2.6-.42-6.71-1.05-13.46-1.58-20.07-1.58-8.8,0-14.93.59-19.29,1.86-11.34,3.29-12.22,11.77-12.22,14.29,0,4.93,2.65,9.21,7.07,11.62-3.37-.91-5.59-1.99-7.05-2.93-1.87-1.22-3.78-3.22-3.78-8.85,0-5.04,2.03-8.44,6.8-11.37l.74-.45c6.07-3.45,14.85-5.19,26.11-5.19,6.78,0,13.12.47,18.85,1.41,2.13.35,3.93.68,5.44.98v.63Z"/>
        <path class="st1" d="M780.92,16.18v126.75h43.78v-39.47h52.89v-39.57h-52.89v-6.2h60.17V16.18h-103.95ZM864.87,37.69h-60.17v85.24h-3.78V36.18h63.95v1.51Z"/>
        <path class="st1" d="M978.57,101.25l-1.83.37v-59.58h-43.78v59.87c-.68.37-1.69.63-3.26.63-2.29,0-3.32-.31-3.58-.41h-.01s-.02-.08-.04-.16c-.28-1.09-.6-3.18-.6-6.89v-53.03h-53v41.51h9.22v16.85c0,13.29,3.57,23.96,10.61,31.71,7.29,8.03,17.21,12.1,29.48,12.1,8.44,0,15.44-2.03,20.77-6.02.48-.36.94-.72,1.39-1.11.23.2.45.4.68.59,5.18,4.35,12.19,6.55,20.83,6.55,2.66,0,5.26-.21,7.75-.63,2.23-.38,3.96-.79,5.37-1.26.19-.07.38-.13.56-.2l6.51-2.43v-39.9l-7.07,1.44ZM953.94,116.5l-1.78-6.81.8-1.33v-46.32h3.78v43.22c0,4.33.8,7.79,2.43,10.57.99,1.68,2.94,4.12,6.47,5.55v2.85c-3.79.04-6.7-.64-8.17-1.87-1.75-1.48-2.88-3.34-3.53-5.86ZM921.78,124.22c-6.58,0-11.24-1.76-14.68-5.54-3.59-3.96-5.41-10.1-5.41-18.27v-36.85h-9.22v-1.51h13v33.03c0,4.67.39,8.5,1.17,11.66,1.15,4.71,3.84,8.73,7.75,11.59,3.84,2.83,8.85,4.21,15.31,4.21h.34c-1.83,1.1-4.67,1.68-8.26,1.68Z"/>
        <path class="st1" d="M1082.84,108.19l-6.28-6.91-2.93.5v-21.42c0-11.94-3.32-21.57-9.87-28.64-6.75-7.27-16.65-10.96-29.41-10.96-9.19,0-16.25,1.91-21.56,5.84-.44.33-.87.67-1.3,1.02l-3.45-5.56h-29.47v100.86h43.78v-59.61c.81-.58,2.15-1.04,4.56-1.04,1.31,0,2.2.1,2.76.2.09.46.18,1.19.18,2.25v24.75c0,10.11,2.39,18.32,7.11,24.41,5.32,6.86,13.85,10.34,25.37,10.34,2.74,0,5.32-.17,7.68-.49,3.11-.44,5.44-1.08,7.32-2.02l5.52-2.77v-30.75ZM1052.76,121.62c-1.9-2.46-2.91-6.66-2.91-12.15v-24.75c0-6.71-1.78-12.11-5.29-16.04-3.8-4.25-9.74-6.41-17.65-6.41-.55,0-1.09.01-1.63.04,1.21-.65,3.83-1.55,9.07-1.55,6.98,0,11.94,1.54,14.74,4.56,3.01,3.24,4.54,8.31,4.54,15.04v24.91c0,4.59.81,8.04,2.55,10.84,1.02,1.66,3.05,4.08,6.67,5.43v2.68h-.52c-4.8,0-8.29-.95-9.57-2.6ZM998.57,64.71l5.75,9.24c-.26.42-.51.86-.76,1.3l-1.21,2.24v45.43h-3.78v-58.21Z"/>
      </g>
      <g>
        <path class="st2" d="M10.97,81.17h22.97l-.16,12.13c0,13.05,6.9,19.57,20.7,19.57,6.58,0,11.59-1.97,15.04-5.9s5.18-10.65,5.18-20.14V26.18h23.78v60.66c0,31.6-14.67,47.39-44,47.39-13.26,0-23.99-3.18-32.19-9.54-8.2-6.36-12.29-16.82-12.29-31.38,0-4.1.32-8.14.97-12.13h0Z"/>
        <path class="st2" d="M195.21,112.41c-.58,0-1.11-.04-1.59-.12-1.29-.21-2.19-.71-2.7-1.5-.7-1.08-1.05-2.86-1.05-5.34v-20.54c0-11.22-3.64-19.71-10.92-25.48-7.28-5.76-19.17-8.65-35.67-8.65-5.83,0-11.6.4-17.31,1.21-5.71.81-10.13,1.65-13.26,2.51l.16,21.35c2.92-.97,7.09-1.89,12.54-2.75,5.45-.86,10.87-1.29,16.26-1.29,6.9,0,12.13.57,15.69,1.7s5.91,2.62,7.04,4.45c1.13,1.83,1.7,4.1,1.7,6.79v2.26h-.49c-2.59-.97-5.96-1.89-10.11-2.75-4.15-.86-8.81-1.29-13.99-1.29-10.03,0-17.91,2.13-23.62,6.39-5.71,4.26-8.57,10.49-8.57,18.68,0,4.96,1.29,9.43,3.88,13.42,2.59,3.99,6.28,7.12,11.08,9.38,4.8,2.27,10.32,3.4,16.58,3.4,6.9,0,12.53-1.4,16.9-4.21,4.36-2.81,7.25-6.74,8.65-11.81h.65c2.59,10.67,9.7,16.01,21.35,16.01,1.87,0,3.61-.09,5.21-.28,2.1-.23,3.98-.63,5.63-1.18v-20.85c-1.61.33-2.96.49-4.04.49ZM166.09,106.56c-2.48,2.38-5.34,4.08-8.57,5.1h-.01c-3.24,1.02-7.12,1.53-11.65,1.53s-7.52-.67-9.62-2.02c-2.1-1.35-3.15-3.1-3.15-5.26s.92-3.64,2.75-4.77c1.84-1.13,4.48-1.7,7.93-1.7h22.32v7.12Z"/>
        <path class="st2" d="M291.61,57.23c2.91,4.31,4.37,10.73,4.37,19.25v56.45h-22.16v-55.16c0-2.37-.46-4.12-1.38-5.26-.92-1.13-2.51-1.7-4.77-1.7-2.81,0-5.07,1.19-6.79,3.56v58.55h-22.16v-55.16c0-2.37-.46-4.12-1.38-5.26-.92-1.13-2.51-1.7-4.77-1.7-2.81,0-5.07,1.03-6.79,3.07v59.04h-22.16V52.06h13.59l6.47,12.78h.65c1.29-4.74,3.5-8.27,6.63-10.59s6.85-3.48,11.16-3.48c4.85,0,8.73,1.13,11.65,3.4,2.91,2.26,4.91,5.82,5.98,10.68h.65c1.08-4.74,3.1-8.27,6.07-10.59,2.96-2.32,6.6-3.48,10.92-3.48,6.58,0,11.32,2.16,14.23,6.47v-.02Z"/>
        <path class="st2" d="M380.73,61.92c-6.26-7.43-14.94-11.15-26.04-11.15-5.71,0-10.46,1.29-14.23,3.88-3.77,2.59-6.36,6.36-7.76,11.32h-.97l1.29-16.34V11.62h-23.78v121.31h18.12l.31-1.46,2.76-12.77h.97c1.4,5.18,4.15,9.06,8.25,11.65,4.09,2.59,9.11,3.88,15.04,3.88,4.46,0,8.65-.8,12.56-2.39,1.86-.75,3.65-1.68,5.39-2.79,5.39-3.45,9.65-8.41,12.78-14.88,3.13-6.47,4.69-14.08,4.69-22.81,0-12.19-3.13-22-9.38-29.44ZM333.01,80.37c.39-.6.8-1.17,1.23-1.71,3.39-4.25,8.11-6.38,14.14-6.38,5.6,0,10,1.69,13.18,5.09,3.18,3.39,4.77,8.11,4.77,14.15,0,5.69-1.1,10.29-3.31,13.79-.41.67-.88,1.31-1.38,1.9v.02c-3.12,3.67-7.38,5.5-12.77,5.5-3.03,0-5.96-.51-8.82-1.54-2.86-1.03-5.21-2.51-7.04-4.45v-26.37Z"/>
        <path class="st2" d="M482.63,112.72c-12.62,0-23.03-4.37-31.22-13.1,5.92-8.52,10.4-15.83,13.42-21.92,3.02-6.09,5.04-11.65,6.07-16.66,1.03-5.01,1.54-10.65,1.54-16.9,0-22.75-10.03-34.13-30.09-34.13-9.7,0-17.22,3-22.56,8.98-5.34,5.98-8.01,15.93-8.01,29.84,0,9.7,1.14,18.95,3.4,27.74,2.27,8.79,5.56,16.8,9.87,24.02-8.74,10.89-17.95,21.67-27.66,32.35h28.79l12.13-15.37c5.61,5.39,11.78,9.51,18.52,12.37,6.74,2.86,13.78,4.29,21.11,4.29,5.18,0,9.16-.38,11.97-1.13v-20.87c-2.05.33-4.48.49-7.28.49ZM448.42,34.6c1.24,2.05,1.86,5.55,1.86,10.51,0,6.36-.65,12.02-1.94,16.98-1.29,4.96-4.04,10.89-8.25,17.79v.02c-3.13-8.74-4.69-19.09-4.69-31.06.11-6.47.7-10.97,1.78-13.51,1.08-2.53,2.91-3.8,5.5-3.8s4.5,1.02,5.74,3.07Z"/>
        <path class="st2" d="M579.31,67.88c-.74-1.32-1.56-2.56-2.48-3.72-1.04-1.33-2.19-2.56-3.45-3.69-7.23-6.48-16.71-9.71-30.41-9.71s-24.7,3.56-33,10.68c-8.31,7.12-12.46,17.47-12.46,31.06,0,2.9.2,5.66.6,8.29.4,2.61,1,5.09,1.8,7.44,1.97,5.78,5.16,10.73,9.57,14.84,7.98,7.44,20.32,11.16,37.04,11.16,12.29,0,23.18-1.46,32.67-4.37v-20.54c-10.14,2.59-20.82,3.88-32.03,3.88-7.33,0-12.97-.94-16.9-2.83-3.93-1.88-6.55-4.99-7.84-9.3h61.8v-11.32c0-8.78-1.64-16.07-4.91-21.87ZM522.09,84.57c1.19-4.53,3.51-7.79,6.96-9.79,3.45-1.99,7.99-2.99,13.91-2.99s10.37,1.02,13.34,3.07c2.97,2.05,4.45,5.29,4.45,9.71h-38.66Z"/>
        <path class="st2" d="M606.12,57.88c7.71-4.74,18.41-7.12,32.11-7.12,7.33,0,14.15.51,20.46,1.54,6.31,1.03,10.92,2.08,13.83,3.15v20.7c-3.23-.97-7.95-1.94-14.15-2.91s-12.37-1.46-18.52-1.46c-7.66,0-13.16.49-16.5,1.46s-5.01,2.54-5.01,4.69c0,1.51.92,2.59,2.75,3.24s5.12,1.13,9.87,1.46l17.15.97c11.54.76,19.95,3.05,25.23,6.88,5.28,3.83,7.93,9.09,7.93,15.77,0,9.38-3.8,16.39-11.4,21.03-7.6,4.64-18.58,6.96-32.92,6.96-8.2,0-15.75-.65-22.65-1.94-6.9-1.29-11.97-2.59-15.2-3.88v-20.87c4.1,1.4,9.25,2.7,15.45,3.88,6.2,1.19,13.24,1.78,21.11,1.78s13.75-.46,16.98-1.38c3.24-.92,4.85-2.51,4.85-4.77,0-1.51-.95-2.61-2.83-3.32-1.89-.7-5.1-1.16-9.62-1.38l-17.79-.97c-10.68-.65-18.79-2.78-24.34-6.39-5.55-3.61-8.33-9.35-8.33-17.23,0-8.52,3.85-15.15,11.57-19.89h-.03Z"/>
        <path class="st2" d="M814.7,47.69v26.2h52.89v19.57h-52.89v39.47h-23.78V26.18h83.95v21.51s-60.17,0-60.17,0Z"/>
        <path class="st2" d="M975.64,112.07v20.7c-.86.32-2.24.65-4.12.97-1.89.32-3.91.49-6.07.49-6.25,0-11.05-1.4-14.4-4.21-3.34-2.8-5.61-6.47-6.79-11h-.81c-.97,4.75-3.26,8.47-6.87,11.16-3.61,2.7-8.55,4.04-14.8,4.04-9.38,0-16.74-2.94-22.08-8.82s-8.01-14.21-8.01-24.99v-26.85h-9.22v-21.51h33v43.03c0,3.78.29,6.88.89,9.3.59,2.43,1.91,4.4,3.96,5.9,2.05,1.51,5.18,2.26,9.38,2.26,6.04,0,10.46-2.32,13.26-6.96v-53.54h23.78v53.22c0,2.48.35,4.31,1.05,5.5s2.13,1.78,4.29,1.78c.75,0,1.94-.16,3.56-.49v.02Z"/>
        <path class="st2" d="M1072.85,112.07v20.7c-.86.43-2.26.78-4.21,1.05-1.94.27-4.04.4-6.31.4-8.31,0-14.13-2.16-17.47-6.47s-5.01-10.41-5.01-18.28v-24.75c0-4.21-.92-7.33-2.75-9.38-1.83-2.05-5.23-3.07-10.19-3.07-6.9,0-11.75,2.59-14.56,7.76v52.89h-23.78V52.06h13.91l8.25,13.26h.49c1.51-4.53,4.02-8.09,7.52-10.68s8.71-3.88,15.61-3.88c9.92,0,17.28,2.59,22.08,7.76,4.8,5.18,7.2,12.46,7.2,21.84v24.91c0,2.59.35,4.45,1.05,5.58.7,1.13,2.08,1.7,4.12,1.7.75,0,2.1-.16,4.04-.49h.01Z"/>
      </g>
    </g>
    <g>
      <g>
        <path class="st1" d="M732.63,80.17c-18.92,0-34.99,14.11-37.42,32.83-.11.77-.19,1.5-.23,2.22-.06.67-.08,1.35-.09,2.08-.01.2-.01.41-.01.62,0,17.76,12.59,33.28,29.94,36.93.74.16,1.49.3,2.27.41.89.14,1.7.21,2.16.25,1.06.1,2.16.15,3.38.15,20.82,0,37.76-16.93,37.76-37.74h0c0-20.82-16.94-37.75-37.76-37.75ZM730.78,138.58c-.08,0-.17,0-.25-.02-.29-.03-.57-.06-.85-.1l-.18-.03c-.25-.03-.47-.07-.68-.12-.1-.02-.2-.04-.3-.06l-.16-.03c-9.37-1.95-16.22-10.21-16.47-19.82-.01-.14-.01-.29-.01-.44v-.44c.01-.33.02-.61.04-.87,0-.03.01-.06.01-.08l.02-.3c.01-.27.04-.56.09-.89l.02-.15c.01-.09.02-.19.04-.28.37-2.63,1.24-5.09,2.5-7.29.1-.18.2-.36.31-.54.23-.37.47-.74.73-1.1.36-.53.76-1.04,1.18-1.53.71-.83,1.48-1.61,2.32-2.32.03-.03.06-.06.1-.08.4-.35.82-.68,1.25-.98.11-.09.22-.17.34-.25.54-.37,1.1-.72,1.67-1.04.19-.11.38-.21.57-.31.49-.26.99-.49,1.5-.7.7-.3,1.42-.56,2.16-.78.03-.01.07-.02.11-.04.64-.18,1.3-.34,1.97-.47,1.24-.23,2.52-.35,3.82-.35,5.34,0,10.2,2.02,13.88,5.33.66.59,1.27,1.21,1.84,1.88.29.34.57.68.84,1.04.27.35.52.7.76,1.07,1.33,2,2.32,4.25,2.88,6.66.2.81.34,1.63.43,2.47.09.75.13,1.52.13,2.29h0c0,4.37-1.35,8.42-3.67,11.76h0c-.41.61-.86,1.19-1.34,1.75-.14.17-.29.34-.44.5-.58.64-1.21,1.24-1.87,1.8-3.62,3.09-8.31,4.94-13.43,4.94-.12,0-.24,0-.36-.01-.53,0-1.01-.02-1.49-.07Z"/>
        <path class="st0" d="M761.89,117.92c0,16.15-13.1,29.24-29.26,29.24-.87,0-1.73-.03-2.58-.11-.58-.05-1.14-.11-1.71-.2-.58-.08-1.14-.18-1.71-.31-13.28-2.76-23.25-14.53-23.25-28.62,0-.14,0-.27.01-.4,0-.58.02-1.14.07-1.7.03-.57.09-1.12.17-1.67,1.84-14.38,14.12-25.48,29-25.48,16.15,0,29.26,13.09,29.26,29.24h0Z"/>
      </g>
      <g>
        <path class="st3" d="M756.42,114.04l-.86,9.8c-.14,1.56-.67,3-1.5,4.21-1.28,1.93-3.29,3.31-5.61,3.78-.83.17-1.68.23-2.57.15l-10.47-.92c-1.3-.11-2.52.68-2.94,1.91l-2.05,5.89-1.56,4.5-.1.15c-.18.63-.43,1.54-.44,2.78,0,.19.01.38.02.57-.58-.08-1.14-.18-1.71-.31-13.28-2.76-23.25-14.53-23.25-28.62,0-.14,0-.27.01-.4,0-.58.02-1.14.07-1.7,2.76.27,4.86.83,5.71,1.07.18.05.36.06.54.03l2.92-.37c.95-.12,1.76-.72,2.19-1.58l2.06-4.21c.15-.31.24-.62.28-.95.1-.76-.1-1.53-.55-2.17h-.01c-1.21-1.68-1.81-3.52-1.77-4.96.03-1.02.38-1.85,1.05-2.34.84-.61,2.01-.57,3.24,0,.24.11.47.16.7.15.76-.02,1.45-.61,1.59-1.45.14-.72.45-1.31.98-1.68.86-.62,2.1-.54,3.37.08.01.01.02.01.03.01,1.14.58,2.32,1.58,3.29,2.93.12.18.26.37.38.57.25.38.55.71.9.98.6.46,1.33.76,2.1.85l8.69.96.19.02,1.11.09,1.81.16,4,.35c2.01.18,3.82,1.01,5.21,2.27,1.2,1.09,2.1,2.49,2.58,4.07.32,1.05.44,2.17.34,3.33h.03Z"/>
        <path class="st6" d="M730.45,102.91c-.22,1.11-1.66,1.96-2.79,2.17-1.8.33-2.84-.97-4-.27-.69.42-.63,1.07-1.21,2.07-1.12,1.95-3.68,3.56-5.33,2.94-2.43-.92-3.43-5.87-1.97-7.64,1.2-1.46,3.47.02,5.58-1.88,1.39-1.25,1.01-2.45,2.12-3.03,2.54-1.34,8.11,3.12,7.6,5.64Z"/>
        <polygon class="st6" points="742.41 103.49 748.51 132.09 753.82 130.23 756.45 107.48 742.41 103.49"/>
        <path class="st4" d="M754.65,115.96c-.1,0-.2-.01-.3-.04l-4.76-1.32c-.6-.17-.95-.79-.79-1.39.17-.6.8-.95,1.39-.79l4.76,1.32c.6.17.95.79.79,1.39-.14.5-.59.83-1.09.83Z"/>
        <path class="st5" d="M756.44,107.53s-.02-.05-.03-.07c-1.73-2.65-4.6-4.5-7.97-4.79l-6.87-.6-8.89-.97c-.75-.08-1.39-.47-1.77-1.06-.14-.21-.28-.44-.44-.64-1.15-1.62-2.63-2.88-4.17-3.58-1.81-.81-3.59-.76-4.88.18-.83.6-1.38,1.48-1.56,2.65-.01.09-.1.15-.19.1-1.77-.76-3.5-.68-4.77.24-1.29.92-1.91,2.58-1.72,4.56.17,1.67.89,3.48,2.06,5.1l.03.05c.27.42.32.93.1,1.36l-2.06,4.18c-.18.37-.51.61-.89.67l-2.81.36s-.03.01-.06,0c-.94-.27-3.1-.81-5.9-1.09-.08.55-.14,1.11-.17,1.67-.05.55-.07,1.12-.07,1.7,2.57.26,4.52.78,5.3,1.01.41.11.83.15,1.23.09l2.92-.38c1.5-.19,2.8-1.13,3.49-2.52l2.06-4.19c.27-.54.43-1.13.46-1.73.09-1.09-.21-2.2-.87-3.13l-.07-.08c-.78-1.11-1.28-2.33-1.38-3.38-.08-.71.06-1.29.32-1.48.28-.19.88-.12,1.55.18.92.42,1.94.4,2.85-.07.01,0,.01-.01.02-.01.21-.11.42-.25.61-.41.62-.52,1.05-1.25,1.2-2.06.03-.21.11-.49.29-.62.27-.19.86-.12,1.51.17.98.44,2,1.35,2.81,2.48.11.16.23.32.34.49.51.78,1.19,1.42,1.99,1.87.68.4,1.45.64,2.26.73l8.68.96,1.87.16,5.29.46c3.97.35,6.92,3.87,6.58,7.85l-.08.94-.78,8.85c-.2,2.37-1.53,4.47-3.64,5.69-.67.37-1.39.63-2.14.77-.76.15-1.55.18-2.33.11l-10.2-.89c-2.1-.18-4.02,1.07-4.69,3.04l-3.53,10.17-.14.19-.08.26c-.17.6-.49,1.72-.5,3.26,0,.09,0,.17.01.26.57.12,1.13.23,1.71.31.57.09,1.13.16,1.71.2-.02-.25-.03-.5-.03-.76,0-.88.16-1.57.29-2.07l3.76-10.72c.16-.5.67-.8,1.18-.77l10.48.92c2.96.26,5.82-.7,8.04-2.7,2.09-1.88,3.26-4.56,3.5-7.35l.83-9.42h0c.2-2.44-.42-4.75-1.66-6.66v-.04Z"/>
        <g>
          <path class="st3" d="M719.83,100.5c2.81.8,5.51,3.48,5.23,4.86l-5.23-4.86Z"/>
          <path class="st5" d="M725.06,107.06c-.11,0-.23-.01-.34-.03-.87-.18-1.45-.99-1.34-1.86-.2-.64-1.89-2.43-4.01-3.03-.9-.26-1.42-1.19-1.17-2.1.26-.9,1.19-1.42,2.09-1.17,3.35.95,6.96,4.21,6.42,6.83-.16.8-.87,1.36-1.66,1.36h.01Z"/>
        </g>
        <path class="st5" d="M729.78,117.29c-1.88,0-3.43-.66-4.26-1.89-.34-.51-.55-1.1-.62-1.77-.06-.62.39-1.18,1.01-1.24.64-.06,1.17.39,1.24,1.01.03.29.11.54.24.73.53.79,2.25,1.24,4.52.56.6-.18,1.23.16,1.41.76s-.16,1.23-.76,1.41c-.97.29-1.91.43-2.77.43h0Z"/>
      </g>
    </g>
  </g>
</svg>